0
SECTION
2
HEADER
9
$INSUNITS
70
4
0
ENDSEC
0
SECTION
2
TABLES
0
TABLE
2
LAYER
70
3
0
LAYER
2
BOUNDARY
70
0
62
7
6
CONTINUOUS
0
LAYER
2
STITCH
70
0
62
1
6
CONTINUOUS
0
LAYER
2
HOLES
70
0
62
5
6
CONTINUOUS
0
ENDTAB
0
ENDSEC
0
SECTION
2
ENTITIES
0
LWPOLYLINE
8
BOUNDARY
90
196
70
1
10
0
20
40
10
0.1112
20
36.3468
10
0.4394
20
32.8842
10
0.9766
20
29.6081
10
1.715
20
26.514
10
2.6465
20
23.5977
10
3.7631
20
20.8547
10
5.057
20
18.281
10
6.52
20
15.872
10
8.1443
20
13.6235
10
9.9219
20
11.5312
10
11.8448
20
9.5908
10
13.905
20
7.798
10
16.0946
20
6.1484
10
18.4056
20
4.6377
10
20.8301
20
3.2617
10
23.36
20
2.016
10
25.9874
20
0.8963
10
28.7044
20
-0.1017
10
31.5029
20
-0.9824
10
34.375
20
-1.75
10
37.3127
20
-2.4088
10
40.3081
20
-2.9633
10
43.3532
20
-3.4175
10
46.44
20
-3.776
10
49.5605
20
-4.043
10
52.7069
20
-4.2227
10
55.871
20
-4.3197
10
59.045
20
-4.338
10
62.2209
20
-4.2821
10
65.3906
20
-4.1562
10
68.5463
20
-3.9648
10
71.68
20
-3.712
10
74.7837
20
-3.4022
10
77.8494
20
-3.0398
10
80.8691
20
-2.6289
10
83.835
20
-2.174
10
86.739
20
-1.6793
10
89.5731
20
-1.1493
10
92.3295
20
-0.588
10
95
20
0
10
97.6705
20
-0.588
10
100.4269
20
-1.1493
10
103.261
20
-1.6793
10
106.165
20
-2.174
10
109.1309
20
-2.6289
10
112.1506
20
-3.0398
10
115.2163
20
-3.4022
10
118.32
20
-3.712
10
121.4537
20
-3.9648
10
124.6094
20
-4.1562
10
127.7791
20
-4.2821
10
130.955
20
-4.338
10
134.129
20
-4.3197
10
137.2931
20
-4.2227
10
140.4395
20
-4.043
10
143.56
20
-3.776
10
146.6468
20
-3.4175
10
149.6919
20
-2.9633
10
152.6873
20
-2.4088
10
155.625
20
-1.75
10
158.4971
20
-0.9824
10
161.2956
20
-0.1017
10
164.0126
20
0.8963
10
166.64
20
2.016
10
169.1699
20
3.2617
10
171.5944
20
4.6378
10
173.9054
20
6.1484
10
176.095
20
7.798
10
178.1552
20
9.5908
10
180.0781
20
11.5312
10
181.8557
20
13.6235
10
183.48
20
15.872
10
184.943
20
18.281
10
186.2369
20
20.8547
10
187.3535
20
23.5977
10
188.285
20
26.514
10
189.0234
20
29.6081
10
189.5606
20
32.8842
10
189.8888
20
36.3468
10
190
20
40
10
190.1467
20
44.9171
10
190.1873
20
49.6705
10
190.122
20
54.263
10
189.9514
20
58.6975
10
189.6759
20
62.9769
10
189.296
20
67.104
10
188.8121
20
71.0818
10
188.2246
20
74.9132
10
187.534
20
78.601
10
186.7407
20
82.1481
10
185.8453
20
85.5575
10
184.848
20
88.832
10
183.7494
20
91.9745
10
182.5499
20
94.9879
10
181.25
20
97.875
10
179.8501
20
100.6388
10
178.3506
20
103.2822
10
176.752
20
105.808
10
175.0547
20
108.2191
10
173.2593
20
110.5185
10
171.366
20
112.709
10
169.3754
20
114.7935
10
167.2879
20
116.7749
10
165.104
20
118.656
10
162.8241
20
120.4398
10
160.4486
20
122.1292
10
157.978
20
123.727
10
155.4127
20
125.2361
10
152.7533
20
126.6595
10
150
20
128
10
146.7895
20
125.3005
10
143.756
20
122.604
10
140.8965
20
119.9135
10
138.208
20
117.232
10
135.6875
20
114.5625
10
133.332
20
111.908
10
131.1385
20
109.2715
10
129.104
20
106.656
10
127.2255
20
104.0645
10
125.5
20
101.5
10
123.9245
20
98.9655
10
122.496
20
96.464
10
121.2115
20
93.9985
10
120.068
20
91.572
10
119.0625
20
89.1875
10
118.192
20
86.848
10
117.4535
20
84.5565
10
116.844
20
82.316
10
116.3605
20
80.1295
10
116
20
78
10
113.8364
20
76.5938
10
111.4883
20
75.375
10
108.9819
20
74.3438
10
106.3438
20
73.5
10
103.6001
20
72.8438
10
100.7773
20
72.375
10
97.9019
20
72.0938
10
95
20
72
10
92.0981
20
72.0938
10
89.2227
20
72.375
10
86.3999
20
72.8438
10
83.6562
20
73.5
10
81.0181
20
74.3438
10
78.5117
20
75.375
10
76.1636
20
76.5938
10
74
20
78
10
73.6395
20
80.1295
10
73.156
20
82.316
10
72.5465
20
84.5565
10
71.808
20
86.848
10
70.9375
20
89.1875
10
69.932
20
91.572
10
68.7885
20
93.9985
10
67.504
20
96.464
10
66.0755
20
98.9655
10
64.5
20
101.5
10
62.7745
20
104.0645
10
60.896
20
106.656
10
58.8615
20
109.2715
10
56.668
20
111.908
10
54.3125
20
114.5625
10
51.792
20
117.232
10
49.1035
20
119.9135
10
46.244
20
122.604
10
43.2105
20
125.3005
10
40
20
128
10
37.2467
20
126.6595
10
34.5873
20
125.2361
10
32.022
20
123.727
10
29.5514
20
122.1292
10
27.1759
20
120.4398
10
24.896
20
118.656
10
22.7121
20
116.7749
10
20.6246
20
114.7935
10
18.634
20
112.709
10
16.7407
20
110.5185
10
14.9453
20
108.2191
10
13.248
20
105.808
10
11.6494
20
103.2822
10
10.1499
20
100.6388
10
8.75
20
97.875
10
7.4501
20
94.9879
10
6.2506
20
91.9745
10
5.152
20
88.832
10
4.1547
20
85.5575
10
3.2593
20
82.1481
10
2.466
20
78.601
10
1.7754
20
74.9132
10
1.1879
20
71.0818
10
0.704
20
67.104
10
0.3241
20
62.9769
10
0.0486
20
58.6975
10
-0.122
20
54.263
10
-0.1873
20
49.6705
10
-0.1467
20
44.9171
0
LWPOLYLINE
8
STITCH
90
61
70
0
10
10
20
44
10
10.3511
20
40.0386
10
10.9959
20
36.349
10
11.921
20
32.923
10
13.1135
20
29.7523
10
14.5602
20
26.8287
10
16.248
20
24.144
10
18.1638
20
21.69
10
20.2945
20
19.4584
10
22.627
20
17.441
10
25.1481
20
15.6296
10
27.8449
20
14.016
10
30.704
20
12.592
10
33.7125
20
11.3493
10
36.8572
20
10.2797
10
40.125
20
9.375
10
43.5028
20
8.627
10
46.9775
20
8.0274
10
50.536
20
7.568
10
54.1651
20
7.2406
10
57.8519
20
7.037
10
61.583
20
6.949
10
65.3455
20
6.9683
10
69.1262
20
7.0867
10
72.912
20
7.296
10
76.6898
20
7.588
10
80.4465
20
7.9544
10
84.169
20
8.387
10
87.8441
20
8.8776
10
91.4589
20
9.418
10
95
20
10
10
98.5411
20
9.418
10
102.1559
20
8.8776
10
105.831
20
8.387
10
109.5535
20
7.9544
10
113.3102
20
7.588
10
117.088
20
7.296
10
120.8738
20
7.0867
10
124.6545
20
6.9683
10
128.417
20
6.949
10
132.1481
20
7.037
10
135.8349
20
7.2406
10
139.464
20
7.568
10
143.0225
20
8.0274
10
146.4972
20
8.627
10
149.875
20
9.375
10
153.1428
20
10.2797
10
156.2875
20
11.3493
10
159.296
20
12.592
10
162.1551
20
14.016
10
164.8519
20
15.6296
10
167.373
20
17.441
10
169.7055
20
19.4584
10
171.8362
20
21.69
10
173.752
20
24.144
10
175.4398
20
26.8287
10
176.8865
20
29.7523
10
178.079
20
32.923
10
179.0041
20
36.349
10
179.6489
20
40.0386
10
180
20
44
0
LWPOLYLINE
8
STITCH
90
61
70
0
10
10
20
44
10
10.3511
20
40.6189
10
10.9959
20
37.4708
10
11.921
20
34.549
10
13.1135
20
31.8465
10
14.5602
20
29.3565
10
16.248
20
27.072
10
18.1638
20
24.9862
10
20.2945
20
23.0921
10
22.627
20
21.383
10
25.1481
20
19.8519
10
27.8449
20
18.4918
10
30.704
20
17.296
10
33.7125
20
16.2575
10
36.8572
20
15.3695
10
40.125
20
14.625
10
43.5028
20
14.0172
10
46.9775
20
13.5391
10
50.536
20
13.184
10
54.1651
20
12.9449
10
57.8519
20
12.8148
10
61.583
20
12.787
10
65.3455
20
12.8545
10
69.1262
20
13.0105
10
72.912
20
13.248
10
76.6898
20
13.5602
10
80.4465
20
13.9401
10
84.169
20
14.381
10
87.8441
20
14.8759
10
91.4589
20
15.4178
10
95
20
16
10
98.5411
20
15.4178
10
102.1559
20
14.8759
10
105.831
20
14.381
10
109.5535
20
13.9401
10
113.3102
20
13.5602
10
117.088
20
13.248
10
120.8738
20
13.0105
10
124.6545
20
12.8545
10
128.417
20
12.787
10
132.1481
20
12.8148
10
135.8349
20
12.9449
10
139.464
20
13.184
10
143.0225
20
13.5391
10
146.4972
20
14.0172
10
149.875
20
14.625
10
153.1428
20
15.3695
10
156.2875
20
16.2575
10
159.296
20
17.296
10
162.1551
20
18.4918
10
164.8519
20
19.8519
10
167.373
20
21.383
10
169.7055
20
23.0921
10
171.8362
20
24.9862
10
173.752
20
27.072
10
175.4398
20
29.3565
10
176.8865
20
31.8465
10
178.079
20
34.549
10
179.0041
20
37.4708
10
179.6489
20
40.6189
10
180
20
44
0
CIRCLE
8
HOLES
10
60
20
98
40
1.6
0
CIRCLE
8
HOLES
10
80
20
98
40
1.6
0
CIRCLE
8
HOLES
10
110
20
98
40
1.6
0
CIRCLE
8
HOLES
10
130
20
98
40
1.6
0
ENDSEC
0
EOF
