0
SECTION
2
HEADER
9
$INSUNITS
70
4
0
ENDSEC
0
SECTION
2
TABLES
0
TABLE
2
LAYER
70
3
0
LAYER
2
BOUNDARY
70
0
62
7
6
CONTINUOUS
0
LAYER
2
STITCH
70
0
62
1
6
CONTINUOUS
0
LAYER
2
HOLES
70
0
62
5
6
CONTINUOUS
0
ENDTAB
0
ENDSEC
0
SECTION
2
ENTITIES
0
LWPOLYLINE
8
BOUNDARY
90
126
70
1
10
0
20
0
10
10
20
0
10
20
20
0
10
30
20
0
10
40
20
0
10
50
20
0
10
60
20
0
10
70
20
0
10
80
20
0
10
90
20
0
10
100
20
0
10
110
20
0
10
120
20
0
10
130
20
0
10
140
20
0
10
150
20
0
10
160
20
0
10
170
20
0
10
180
20
0
10
190
20
0
10
200
20
0
10
210
20
0
10
220
20
0
10
221.4165
20
3.8001
10
222.6655
20
7.6921
10
223.7461
20
11.6641
10
224.6574
20
15.7037
10
225.3986
20
19.7989
10
225.9688
20
23.9375
10
226.367
20
28.1073
10
226.5926
20
32.2963
10
226.6445
20
36.4922
10
226.522
20
40.6829
10
226.2241
20
44.8562
10
225.75
20
49
10
225.0988
20
53.1021
10
224.2697
20
57.1505
10
223.2617
20
61.1328
10
222.0741
20
65.037
10
220.7059
20
68.851
10
219.1562
20
72.5625
10
217.4243
20
76.1594
10
215.5093
20
79.6296
10
213.4102
20
82.9609
10
211.1262
20
86.1412
10
208.6564
20
89.1583
10
206
20
92
10
202.9541
20
93.8267
10
199.8203
20
95.5508
10
196.6045
20
97.1636
10
193.3125
20
98.6562
10
189.9502
20
100.02
10
186.5234
20
101.2461
10
183.0381
20
102.3257
10
179.5
20
103.25
10
175.915
20
104.0103
10
172.2891
20
104.5977
10
168.6279
20
105.0034
10
164.9375
20
105.2188
10
161.2236
20
105.2349
10
157.4922
20
105.043
10
153.749
20
104.6343
10
150
20
104
10
147.0299
20
101.9504
10
144.1166
20
100.0933
10
141.2558
20
98.4373
10
138.4431
20
96.9913
10
135.6742
20
95.7638
10
132.9446
20
94.7638
10
130.25
20
94
10
127.586
20
93.481
10
124.9483
20
93.2157
10
122.3324
20
93.2128
10
119.734
20
93.481
10
117.1487
20
94.0292
10
114.5722
20
94.8659
10
112
20
96
10
109.5262
20
98.324
10
106.91
20
100.492
10
104.1587
20
102.498
10
101.28
20
104.336
10
98.2812
20
106
10
95.17
20
107.484
10
91.9537
20
108.782
10
88.64
20
109.888
10
85.2363
20
110.796
10
81.75
20
111.5
10
78.1887
20
111.994
10
74.56
20
112.272
10
70.8712
20
112.328
10
67.13
20
112.156
10
63.3438
20
111.75
10
59.52
20
111.104
10
55.6663
20
110.212
10
51.79
20
109.068
10
47.8987
20
107.666
10
44
20
106
10
42.4001
20
104.9134
10
40.8012
20
103.6539
10
39.204
20
102.222
10
37.6095
20
100.6181
10
36.0185
20
98.8426
10
34.432
20
96.896
10
32.8508
20
94.7787
10
31.2759
20
92.4913
10
29.708
20
90.034
10
28.1481
20
87.4074
10
26.5972
20
84.6119
10
25.056
20
81.648
10
23.5255
20
78.5161
10
22.0065
20
75.2166
10
20.5
20
71.75
10
19.0068
20
68.1167
10
17.5279
20
64.3173
10
16.064
20
60.352
10
14.6161
20
56.2214
10
13.1852
20
51.9259
10
11.772
20
47.466
10
10.3775
20
42.8421
10
9.0025
20
38.0546
10
7.648
20
33.104
10
6.3148
20
27.9907
10
5.0039
20
22.7153
10
3.716
20
17.278
10
2.4521
20
11.6794
10
1.2132
20
5.9199
0
LINE
8
STITCH
10
30
20
8
11
200
21
8
0
ENDSEC
0
EOF
