0
SECTION
2
HEADER
9
$INSUNITS
70
4
0
ENDSEC
0
SECTION
2
TABLES
0
TABLE
2
LAYER
70
3
0
LAYER
2
BOUNDARY
70
0
62
7
6
CONTINUOUS
0
LAYER
2
STITCH
70
0
62
1
6
CONTINUOUS
0
LAYER
2
HOLES
70
0
62
5
6
CONTINUOUS
0
ENDTAB
0
ENDSEC
0
SECTION
2
ENTITIES
0
LWPOLYLINE
8
BOUNDARY
90
80
70
1
10
138.4703
20
14.5538
10
137.5351
20
18.4122
10
136.3827
20
22.2113
10
135.0167
20
25.939
10
133.4415
20
29.5833
10
131.6624
20
33.1324
10
129.6848
20
36.5749
10
127.5153
20
39.8998
10
125.1608
20
43.0963
10
122.6288
20
46.1542
10
119.9275
20
49.0636
10
117.0657
20
51.8153
10
114.0524
20
54.4002
10
110.8975
20
56.8102
10
107.611
20
59.0374
10
104.2035
20
61.0747
10
100.686
20
62.9156
10
97.0698
20
64.5541
10
93.3665
20
65.9849
10
89.588
20
67.2035
10
85.7466
20
68.2059
10
81.8545
20
68.9889
10
77.9242
20
69.55
10
73.9685
20
69.8874
10
70
20
70
10
66.0315
20
69.8874
10
62.0758
20
69.55
10
58.1455
20
68.9889
10
54.2534
20
68.2059
10
50.412
20
67.2035
10
46.6335
20
65.9849
10
42.9302
20
64.5541
10
39.314
20
62.9156
10
35.7965
20
61.0747
10
32.389
20
59.0374
10
29.1025
20
56.8102
10
25.9476
20
54.4002
10
22.9343
20
51.8153
10
20.0725
20
49.0636
10
17.3712
20
46.1542
10
14.8392
20
43.0963
10
12.4847
20
39.8998
10
10.3152
20
36.5749
10
8.3376
20
33.1324
10
6.5585
20
29.5833
10
4.9833
20
25.939
10
3.6173
20
22.2113
10
2.4649
20
18.4122
10
1.5297
20
14.5538
10
36.743
20
7.069
10
37.5205
20
10.0541
10
38.5654
20
12.9564
10
39.8691
20
15.7521
10
41.4207
20
18.4181
10
43.2076
20
20.9325
10
45.2151
20
23.2746
10
47.4265
20
25.4251
10
49.8238
20
27.3664
10
52.3871
20
29.0824
10
55.0954
20
30.559
10
57.9264
20
31.7841
10
60.8567
20
32.7475
10
63.8623
20
33.4414
10
66.9185
20
33.8601
10
70
20
34
10
73.0815
20
33.8601
10
76.1377
20
33.4414
10
79.1433
20
32.7475
10
82.0736
20
31.7841
10
84.9046
20
30.559
10
87.6129
20
29.0824
10
90.1762
20
27.3664
10
92.5735
20
25.4251
10
94.7849
20
23.2746
10
96.7924
20
20.9325
10
98.5793
20
18.4181
10
100.1309
20
15.7521
10
101.4346
20
12.9564
10
102.4795
20
10.0541
10
103.257
20
7.069
0
CIRCLE
8
HOLES
10
103.425
20
39.8343
40
4
0
CIRCLE
8
HOLES
10
70
20
52
40
4
0
CIRCLE
8
HOLES
10
36.575
20
39.8343
40
4
0
LWPOLYLINE
8
HOLES
90
4
70
1
10
55
20
44
10
85
20
44
42
1
10
85
20
50
10
55
20
50
42
1
0
ENDSEC
0
EOF
