0
SECTION
2
HEADER
9
$INSUNITS
70
4
0
ENDSEC
0
SECTION
2
TABLES
0
TABLE
2
LAYER
70
3
0
LAYER
2
BOUNDARY
70
0
62
7
6
CONTINUOUS
0
LAYER
2
STITCH
70
0
62
1
6
CONTINUOUS
0
LAYER
2
HOLES
70
0
62
5
6
CONTINUOUS
0
ENDTAB
0
ENDSEC
0
SECTION
2
ENTITIES
0
LWPOLYLINE
8
BOUNDARY
90
24
70
1
10
59.5528
20
-7.3122
42
0.0612
10
59.5528
20
7.3122
10
31.4119
20
13.0112
10
47.2806
20
36.9397
42
0.0612
10
36.9397
20
47.2806
10
13.0112
20
31.4119
10
7.3122
20
59.5528
42
0.0612
10
-7.3122
20
59.5528
10
-13.0112
20
31.4119
10
-36.9397
20
47.2806
42
0.0612
10
-47.2806
20
36.9397
10
-31.4119
20
13.0112
10
-59.5528
20
7.3122
42
0.0612
10
-59.5528
20
-7.3122
10
-31.4119
20
-13.0112
10
-47.2806
20
-36.9397
42
0.0612
10
-36.9397
20
-47.2806
10
-13.0112
20
-31.4119
10
-7.3122
20
-59.5528
42
0.0612
10
7.3122
20
-59.5528
10
13.0112
20
-31.4119
10
36.9397
20
-47.2806
42
0.0612
10
47.2806
20
-36.9397
10
31.4119
20
-13.0112
0
CIRCLE
8
HOLES
10
0
20
0
40
6
0
ENDSEC
0
EOF
