0
SECTION
2
HEADER
9
$INSUNITS
70
4
0
ENDSEC
0
SECTION
2
TABLES
0
TABLE
2
LAYER
70
3
0
LAYER
2
BOUNDARY
70
0
62
7
6
CONTINUOUS
0
LAYER
2
STITCH
70
0
62
1
6
CONTINUOUS
0
LAYER
2
HOLES
70
0
62
5
6
CONTINUOUS
0
ENDTAB
0
ENDSEC
0
SECTION
2
ENTITIES
0
SPLINE
8
BOUNDARY
70
1
71
3
72
17
73
13
74
0
40
0
40
0
40
0
40
0
40
0.1
40
0.2
40
0.3
40
0.4
40
0.5
40
0.6
40
0.7
40
0.8
40
0.9
40
1
40
1
40
1
40
1
10
45
20
0
10
0
20
0
10
-8
20
40
10
0
20
90
10
8
20
130
10
30
20
152
10
45
20
150
10
60
20
152
10
82
20
130
10
90
20
90
10
98
20
40
10
90
20
0
10
45
20
0
0
SPLINE
8
STITCH
70
1
71
3
72
9
73
5
74
0
40
0
40
0
40
0
40
0
40
0.5
40
1
40
1
40
1
40
1
10
45
20
20
10
20
20
60
10
45
20
100
10
70
20
60
10
45
20
20
0
ENDSEC
0
EOF
