0
SECTION
2
HEADER
9
$INSUNITS
70
4
0
ENDSEC
0
SECTION
2
TABLES
0
TABLE
2
LAYER
70
3
0
LAYER
2
BOUNDARY
70
0
62
7
6
CONTINUOUS
0
LAYER
2
STITCH
70
0
62
1
6
CONTINUOUS
0
LAYER
2
HOLES
70
0
62
5
6
CONTINUOUS
0
ENDTAB
0
ENDSEC
0
SECTION
2
ENTITIES
0
LWPOLYLINE
8
BOUNDARY
90
4
70
1
10
0
20
0
42
0.18
10
150
20
14
42
1
10
150
20
44
42
-0.18
10
0
20
30
42
1
0
CIRCLE
8
HOLES
10
18
20
16.68
40
2.5
0
CIRCLE
8
HOLES
10
41
20
18.8267
40
2.5
0
CIRCLE
8
HOLES
10
64
20
20.9733
40
2.5
0
CIRCLE
8
HOLES
10
87
20
23.12
40
2.5
0
CIRCLE
8
HOLES
10
110
20
25.2667
40
2.5
0
CIRCLE
8
HOLES
10
133
20
27.4133
40
2.5
0
ENDSEC
0
EOF
