0
SECTION
2
HEADER
9
$INSUNITS
70
4
0
ENDSEC
0
SECTION
2
TABLES
0
TABLE
2
LAYER
70
3
0
LAYER
2
BOUNDARY
70
0
62
7
6
CONTINUOUS
0
LAYER
2
STITCH
70
0
62
1
6
CONTINUOUS
0
LAYER
2
HOLES
70
0
62
5
6
CONTINUOUS
0
ENDTAB
0
ENDSEC
0
SECTION
2
ENTITIES
0
LWPOLYLINE
8
BOUNDARY
90
102
70
1
10
126.7855
20
-28.1077
10
122.021
20
-25.9364
10
117.2193
20
-23.8485
10
112.382
20
-21.8448
10
107.5104
20
-19.9259
10
102.606
20
-18.0922
10
97.6704
20
-16.3444
10
92.7051
20
-14.683
10
87.7115
20
-13.1086
10
82.6912
20
-11.6215
10
77.6457
20
-10.2223
10
72.5766
20
-8.9113
10
67.4853
20
-7.689
10
62.3735
20
-6.5557
10
57.2427
20
-5.5118
10
52.0945
20
-4.5577
10
46.9303
20
-3.6935
10
41.7519
20
-2.9196
10
36.5608
20
-2.2362
10
31.3585
20
-1.6434
10
26.1467
20
-1.1416
10
20.9269
20
-0.7308
10
15.7008
20
-0.4111
10
10.4698
20
-0.1828
10
5.2357
20
-0.0457
10
0
20
0
10
-5.2357
20
-0.0457
10
-10.4698
20
-0.1828
10
-15.7008
20
-0.4111
10
-20.9269
20
-0.7308
10
-26.1467
20
-1.1416
10
-31.3585
20
-1.6434
10
-36.5608
20
-2.2362
10
-41.7519
20
-2.9196
10
-46.9303
20
-3.6935
10
-52.0945
20
-4.5577
10
-57.2427
20
-5.5118
10
-62.3735
20
-6.5557
10
-67.4853
20
-7.689
10
-72.5766
20
-8.9113
10
-77.6457
20
-10.2223
10
-82.6912
20
-11.6215
10
-87.7115
20
-13.1086
10
-92.7051
20
-14.683
10
-97.6704
20
-16.3444
10
-102.606
20
-18.0922
10
-107.5104
20
-19.9259
10
-112.382
20
-21.8448
10
-117.2193
20
-23.8485
10
-122.021
20
-25.9364
10
-126.7855
20
-28.1077
10
-121.7141
20
-38.9834
10
-117.1402
20
-36.8989
10
-112.5306
20
-34.8946
10
-107.8867
20
-32.971
10
-103.21
20
-31.1288
10
-98.5018
20
-29.3685
10
-93.7636
20
-27.6907
10
-88.9969
20
-26.0957
10
-84.2031
20
-24.5842
10
-79.3836
20
-23.1566
10
-74.5399
20
-21.8134
10
-69.6735
20
-20.5548
10
-64.7859
20
-19.3814
10
-59.8786
20
-18.2935
10
-54.953
20
-17.2914
10
-50.0107
20
-16.3754
10
-45.0531
20
-15.5458
10
-40.0819
20
-14.8028
10
-35.0984
20
-14.1467
10
-30.1042
20
-13.5777
10
-25.1009
20
-13.0959
10
-20.0899
20
-12.7016
10
-15.0728
20
-12.3947
10
-10.0511
20
-12.1754
10
-5.0263
20
-12.0439
10
0
20
-12
10
5.0263
20
-12.0439
10
10.0511
20
-12.1754
10
15.0728
20
-12.3947
10
20.0899
20
-12.7016
10
25.1009
20
-13.0959
10
30.1042
20
-13.5777
10
35.0984
20
-14.1467
10
40.0819
20
-14.8028
10
45.0531
20
-15.5458
10
50.0107
20
-16.3754
10
54.953
20
-17.2914
10
59.8786
20
-18.2935
10
64.7859
20
-19.3814
10
69.6735
20
-20.5548
10
74.5399
20
-21.8134
10
79.3836
20
-23.1566
10
84.2031
20
-24.5842
10
88.9969
20
-26.0957
10
93.7636
20
-27.6907
10
98.5018
20
-29.3685
10
103.21
20
-31.1288
10
107.8867
20
-32.971
10
112.5306
20
-34.8946
10
117.1402
20
-36.8989
10
121.7141
20
-38.9834
0
ENDSEC
0
EOF
