0
SECTION
2
HEADER
9
$INSUNITS
70
4
0
ENDSEC
0
SECTION
2
TABLES
0
TABLE
2
LAYER
70
3
0
LAYER
2
BOUNDARY
70
0
62
7
6
CONTINUOUS
0
LAYER
2
STITCH
70
0
62
1
6
CONTINUOUS
0
LAYER
2
HOLES
70
0
62
5
6
CONTINUOUS
0
ENDTAB
0
ENDSEC
0
SECTION
2
ENTITIES
0
LWPOLYLINE
8
BOUNDARY
90
420
70
1
10
245.0488
20
80
10
246.8568
20
81.2653
10
248.4148
20
82.5622
10
249.6997
20
83.8832
10
250.6972
20
85.2202
10
251.4021
20
86.5648
10
251.8182
20
87.9092
10
251.9579
20
89.2462
10
251.8414
20
90.5697
10
251.4955
20
91.8749
10
250.9524
20
93.1586
10
250.2481
20
94.4194
10
249.4209
20
95.6576
10
248.5096
20
96.8749
10
247.5519
20
98.0747
10
246.5828
20
99.2611
10
245.6332
20
100.4395
10
244.7286
20
101.6153
10
243.888
20
102.794
10
243.1237
20
103.9804
10
242.4403
20
105.1786
10
241.835
20
106.3911
10
241.2978
20
107.6188
10
240.8121
20
108.8607
10
240.3556
20
110.1135
10
239.9014
20
111.3719
10
239.4194
20
112.6284
10
238.8774
20
113.8738
10
238.2432
20
115.0968
10
237.4857
20
116.2855
10
236.5765
20
117.4269
10
235.4915
20
118.5079
10
234.2117
20
119.516
10
232.7246
20
120.4398
10
231.0245
20
121.2695
10
229.1134
20
121.9978
10
227.0007
20
122.62
10
224.7032
20
123.1347
10
222.2447
20
123.5443
10
219.655
20
123.8545
10
216.9691
20
124.075
10
214.2259
20
124.2189
10
211.4665
20
124.3029
10
208.7335
20
124.3462
10
206.0686
20
124.3705
10
203.5117
20
124.3989
10
201.0993
20
124.4556
10
198.8631
20
124.5646
10
196.829
20
124.749
10
195.0166
20
125.0302
10
193.4379
20
125.4269
10
192.0975
20
125.9548
10
190.9924
20
126.6255
10
190.1123
20
127.4461
10
189.4401
20
128.4191
10
188.9526
20
129.5421
10
188.6213
20
130.8078
10
188.4142
20
132.2042
10
188.2961
20
133.7152
10
188.2308
20
135.3207
10
188.1817
20
136.9981
10
188.1137
20
138.7223
10
187.9938
20
140.467
10
187.7927
20
142.2058
10
187.4853
20
143.9129
10
187.0514
20
145.5643
10
186.4765
20
147.1384
10
185.7513
20
148.617
10
184.8725
20
149.9859
10
183.8418
20
151.2354
10
182.666
20
152.3604
10
181.3559
20
153.3607
10
179.9261
20
154.2409
10
178.3933
20
155.0099
10
176.7762
20
155.6805
10
175.0937
20
156.2689
10
173.3649
20
156.7935
10
171.6073
20
157.2746
10
169.8367
20
157.7325
10
168.0664
20
158.1875
10
166.3066
20
158.6583
10
164.5644
20
159.1609
10
162.8433
20
159.7085
10
161.1437
20
160.31
10
159.4631
20
160.9699
10
157.796
20
161.6878
10
156.1353
20
162.4583
10
154.4721
20
163.2712
10
152.7969
20
164.1115
10
151.1003
20
164.9603
10
149.3732
20
165.7949
10
147.608
20
166.5903
10
145.799
20
167.3199
10
143.9426
20
167.9564
10
142.038
20
168.4733
10
140.087
20
168.8457
10
138.0943
20
169.0514
10
136.067
20
169.0723
10
134.0148
20
168.8948
10
131.9491
20
168.5105
10
129.8827
20
167.9172
10
127.8291
20
167.1188
10
125.8018
20
166.1251
10
123.8138
20
164.9523
10
121.8766
20
163.6221
10
120
20
162.1612
10
118.1912
20
160.6004
10
116.4546
20
158.9738
10
114.7915
20
157.3175
10
113.1999
20
155.6685
10
111.6746
20
154.0635
10
110.2073
20
152.5374
10
108.7871
20
151.1225
10
107.4008
20
149.8474
10
106.0337
20
148.7357
10
104.6699
20
147.8057
10
103.2935
20
147.0696
10
101.889
20
146.5332
10
100.4422
20
146.1959
10
98.9407
20
146.0509
10
97.3747
20
146.0852
10
95.7374
20
146.2808
10
94.0253
20
146.6151
10
92.2381
20
147.0619
10
90.3794
20
147.5923
10
88.4557
20
148.1761
10
86.4766
20
148.7829
10
84.4543
20
149.3829
10
82.4026
20
149.9486
10
80.3367
20
150.4551
10
78.2718
20
150.8812
10
76.2229
20
151.2103
10
74.2037
20
151.4305
10
72.2259
20
151.5349
10
70.2984
20
151.522
10
68.4271
20
151.3948
10
66.6141
20
151.1614
10
64.8579
20
150.8335
10
63.153
20
150.4262
10
61.4906
20
149.9572
10
59.8585
20
149.4455
10
58.2416
20
148.9107
10
56.6234
20
148.3722
10
54.9858
20
147.8477
10
53.311
20
147.353
10
51.5817
20
146.9008
10
49.7828
20
146.5002
10
47.9019
20
146.1563
10
45.9305
20
145.8701
10
43.8644
20
145.6382
10
41.7047
20
145.4528
10
39.4579
20
145.3026
10
37.1363
20
145.1726
10
34.7575
20
145.0452
10
32.3446
20
144.9008
10
29.9252
20
144.7184
10
27.5307
20
144.4769
10
25.1955
20
144.1557
10
22.9556
20
143.7356
10
20.8474
20
143.1997
10
18.9063
20
142.5341
10
17.1655
20
141.7284
10
15.6542
20
140.7761
10
14.397
20
139.6751
10
13.4123
20
138.4274
10
12.7117
20
137.0397
10
12.299
20
135.5224
10
12.1704
20
133.8898
10
12.3138
20
132.1591
10
12.7093
20
130.3501
10
13.3298
20
128.4843
10
14.1414
20
126.5844
10
15.1049
20
124.673
10
16.1769
20
122.7722
10
17.311
20
120.9026
10
18.4598
20
119.0828
10
19.5763
20
117.329
10
20.6153
20
115.6541
10
21.5353
20
114.0677
10
22.2998
20
112.5758
10
22.8786
20
111.1808
10
23.2483
20
109.8818
10
23.394
20
108.6745
10
23.3087
20
107.5519
10
22.994
20
106.5045
10
22.4598
20
105.5211
10
21.7233
20
104.5892
10
20.8089
20
103.6956
10
19.7464
20
102.8271
10
18.5701
20
101.9711
10
17.3169
20
101.1157
10
16.0253
20
100.2508
10
14.733
20
99.3679
10
13.4762
20
98.4604
10
12.2871
20
97.524
10
11.1935
20
96.5562
10
10.2169
20
95.5567
10
9.3722
20
94.5268
10
8.6667
20
93.4693
10
8.1003
20
92.3881
10
7.665
20
91.2879
10
7.3459
20
90.1734
10
7.1216
20
89.0494
10
6.9655
20
87.9203
10
6.8465
20
86.7893
10
6.7311
20
85.6589
10
6.5847
20
84.5299
10
6.3732
20
83.402
10
6.0646
20
82.2733
10
5.6308
20
81.1407
10
5.0488
20
80
10
4.3023
20
78.846
10
3.3821
20
77.6732
10
2.2872
20
76.4757
10
1.0253
20
75.248
10
-0.3877
20
73.9855
10
-1.9277
20
72.6842
10
-3.5628
20
71.342
10
-5.2549
20
69.9584
10
-6.9605
20
68.5347
10
-8.6323
20
67.0745
10
-10.2207
20
65.5836
10
-11.6758
20
64.0696
10
-12.9492
20
62.5421
10
-13.9954
20
61.0123
10
-14.7739
20
59.4925
10
-15.2501
20
57.9959
10
-15.3974
20
56.5358
10
-15.1972
20
55.1253
10
-14.6405
20
53.7765
10
-13.7276
20
52.5003
10
-12.4684
20
51.3056
10
-10.8818
20
50.199
10
-8.9953
20
49.1845
10
-6.8438
20
48.2631
10
-4.4685
20
47.4331
10
-1.9152
20
46.6896
10
0.7669
20
46.0249
10
3.5276
20
45.4288
10
6.3166
20
44.8888
10
9.0856
20
44.391
10
11.7902
20
43.92
10
14.3906
20
43.4603
10
16.8533
20
42.9963
10
19.1518
20
42.5132
10
21.2673
20
41.9978
10
23.1892
20
41.4388
10
24.9146
20
40.8275
10
26.4485
20
40.158
10
27.803
20
39.4275
10
28.9964
20
38.6365
10
30.0522
20
37.7887
10
30.9977
20
36.8907
10
31.8629
20
35.9519
10
32.6789
20
34.9839
10
33.4765
20
33.9999
10
34.2848
20
33.0141
10
35.1302
20
32.041
10
36.035
20
31.0947
10
37.0169
20
30.1878
10
38.088
20
29.3312
10
39.2548
20
28.5331
10
40.5179
20
27.7988
10
41.8723
20
27.1298
10
43.3076
20
26.524
10
44.8089
20
25.9755
10
46.3578
20
25.4747
10
47.9327
20
25.0082
10
49.5107
20
24.5599
10
51.0685
20
24.1111
10
52.5831
20
23.6413
10
54.0338
20
23.1291
10
55.4023
20
22.5532
10
56.6744
20
21.8932
10
57.8399
20
21.1304
10
58.8938
20
20.2491
10
59.8361
20
19.237
10
60.6719
20
18.0862
10
61.4116
20
16.7935
10
62.07
20
15.3611
10
62.666
20
13.7963
10
63.2214
20
12.1122
10
63.7608
20
10.3267
10
64.3098
20
8.4624
10
64.8944
20
6.5463
10
65.5399
20
4.6083
10
66.2698
20
2.6808
10
67.1052
20
0.7975
10
68.0634
20
-1.0078
10
69.1582
20
-2.7022
10
70.3985
20
-4.255
10
71.7889
20
-5.6387
10
73.329
20
-6.8297
10
75.0141
20
-7.8097
10
76.8349
20
-8.5657
10
78.7786
20
-9.0909
10
80.8295
20
-9.3845
10
82.9691
20
-9.4523
10
85.1777
20
-9.3057
10
87.4349
20
-8.9619
10
89.7202
20
-8.4429
10
92.0144
20
-7.7745
10
94.2997
20
-6.9859
10
96.5605
20
-6.108
10
98.7842
20
-5.1725
10
100.9609
20
-4.2108
10
103.084
20
-3.2526
10
105.15
20
-2.3253
10
107.1585
20
-1.4524
10
109.1116
20
-0.6534
10
111.0137
20
0.0574
10
112.8709
20
0.6708
10
114.6905
20
1.1834
10
116.4802
20
1.5972
10
118.2477
20
1.9191
10
120
20
2.1612
10
121.7428
20
2.3392
10
123.4805
20
2.4722
10
125.2153
20
2.5814
10
126.9477
20
2.6892
10
128.676
20
2.8181
10
130.3966
20
2.9895
10
132.1044
20
3.2227
10
133.7931
20
3.5339
10
135.4554
20
3.9358
10
137.0841
20
4.4363
10
138.6723
20
5.0385
10
140.2142
20
5.7402
10
141.7057
20
6.5343
10
143.1447
20
7.4085
10
144.5318
20
8.346
10
145.8706
20
9.3262
10
147.1677
20
10.3253
10
148.4328
20
11.3173
10
149.6787
20
12.2751
10
150.9208
20
13.1715
10
152.1766
20
13.9804
10
153.4653
20
14.6779
10
154.8068
20
15.2432
10
156.2211
20
15.6595
10
157.7273
20
15.9149
10
159.3429
20
16.0027
10
161.0824
20
15.9219
10
162.9574
20
15.6775
10
164.9748
20
15.2799
10
167.1374
20
14.7454
10
169.4426
20
14.0949
10
171.8827
20
13.3535
10
174.4447
20
12.5499
10
177.1107
20
11.7151
10
179.8585
20
10.8814
10
182.6616
20
10.0815
10
185.4908
20
9.347
10
188.3147
20
8.7078
10
191.1011
20
8.191
10
193.8177
20
7.8196
10
196.4336
20
7.6125
10
198.9205
20
7.5835
10
201.2535
20
7.7411
10
203.4122
20
8.0886
10
205.3812
20
8.6236
10
207.1512
20
9.3388
10
208.7187
20
10.2224
10
210.0866
20
11.2584
10
211.2637
20
12.4276
10
212.2645
20
13.7084
10
213.1082
20
15.0776
10
213.8184
20
16.5116
10
214.4216
20
17.987
10
214.9463
20
19.4814
10
215.4213
20
20.9746
10
215.8753
20
22.449
10
216.3345
20
23.8901
10
216.8223
20
25.2868
10
217.358
20
26.632
10
217.9555
20
27.9221
10
218.6234
20
29.1573
10
219.3639
20
30.3411
10
220.1731
20
31.48
10
221.0409
20
32.5828
10
221.9516
20
33.6604
10
222.8845
20
34.7244
10
223.8147
20
35.7871
10
224.7146
20
36.8606
10
225.5549
20
37.9559
10
226.3059
20
39.0828
10
226.9394
20
40.249
10
227.4298
20
41.4597
10
227.7553
20
42.7178
10
227.8997
20
44.0234
10
227.8527
20
45.3739
10
227.6114
20
46.7642
10
227.1802
20
48.1869
10
226.5716
20
49.6327
10
225.8055
20
51.0912
10
224.9092
20
52.5508
10
223.9166
20
53.9996
10
222.867
20
55.4262
10
221.804
20
56.8198
10
220.7738
20
58.1711
10
219.8239
20
59.4723
10
219.0011
20
60.7179
10
218.35
20
61.9048
10
217.911
20
63.0322
10
217.7191
20
64.1019
10
217.8023
20
65.1182
10
218.1805
20
66.0874
10
218.8647
20
67.0178
10
219.8563
20
67.9192
10
221.147
20
68.8023
10
222.7191
20
69.6784
10
224.5457
20
70.5589
10
226.5918
20
71.4546
10
228.8152
20
72.3754
10
231.1683
20
73.3298
10
233.5991
20
74.3246
10
236.0537
20
75.3647
10
238.4774
20
76.4528
10
240.817
20
77.5894
10
243.0226
20
78.773
0
LWPOLYLINE
8
HOLES
90
4
70
1
10
90
20
65
10
150
20
65
42
1
10
150
20
95
10
90
20
95
42
1
0
LINE
8
STITCH
10
30
20
40
11
210
21
40
0
LINE
8
STITCH
10
30
20
120
11
210
21
120
0
ENDSEC
0
EOF
